<?xml version="1.0" encoding="utf-8"?>
<!-- Generator: Adobe Illustrator 16.0.0, SVG Export Plug-In . SVG Version: 6.00 Build 0)  -->
<!DOCTYPE svg PUBLIC "-//W3C//DTD SVG 1.1//EN" "http://www.w3.org/Graphics/SVG/1.1/DTD/svg11.dtd">
<svg version="1.1" id="Layer_1" xmlns="http://www.w3.org/2000/svg" xmlns:xlink="http://www.w3.org/1999/xlink" x="0px" y="0px"
	 width="36.537px" height="36.674px" viewBox="0 0 36.537 36.674" enable-background="new 0 0 36.537 36.674" xml:space="preserve">
<g>
	<path fill="#005BAA" d="M17.456,26.389c-9.013-3.202-12.728-2.636-13.88-0.029c-0.914,2.065,0.876,3.844,1.968,4.989
		c3.136,3.287,8.547,5.468,13.889,5.318c5.748-0.156,15.736-4.573,17.104-16.221C34.503,28.915,27.082,29.815,17.456,26.389"/>
	<path fill="#005BAA" d="M10.206,15.252c1.496,0,2.712-1.213,2.712-2.715c0-1.498-1.216-2.713-2.712-2.713
		c-1.499,0-2.717,1.215-2.717,2.713C7.489,14.039,8.707,15.252,10.206,15.252"/>
	<path fill="#005BAA" d="M19.246,22.652c5.079,1.611,6.563,2.004,9.918,1.819c2.521-0.141,8.578-2.664,6.955-10.708
		C33.977,5.432,26.177-0.492,17.267,0.032C7.15,0.633-0.568,9.316,0.033,19.436c0.186,3.146,0.858,4.952,1.902,7.135
		C2.416,22.624,5.849,18.393,19.246,22.652 M19.563,6.89h3.154v1.596c1.067-1.111,2.565-1.805,4.225-1.805
		c2.457,0,4.564,1.52,5.434,3.668l-2.918,1.176c-0.403-0.995-1.377-1.7-2.516-1.7c-1.501,0-2.715,1.214-2.715,2.713
		c0,1.501,1.214,2.716,2.715,2.716c1.145,0,2.125-0.709,2.522-1.713l2.92,1.176c-0.865,2.16-2.979,3.684-5.442,3.684
		c-1.66,0-3.158-0.695-4.225-1.806v1.584h-3.154V6.89z M10.206,6.681c1.604,0,3.055,0.645,4.112,1.688V6.89h3.158v11.288h-3.158
		V16.71c-1.057,1.044-2.508,1.689-4.112,1.689c-3.237,0-5.862-2.626-5.862-5.862C4.344,9.304,6.969,6.681,10.206,6.681"/>
</g>
</svg>
