<svg width="287" height="330" viewBox="0 0 287 330" fill="none" xmlns="http://www.w3.org/2000/svg">
<g opacity="0.1">
<path d="M93.2883 110.062L108.997 116.489L95.2214 129.008L104.01 142.505L120.905 133.731L141.173 147.904L138.47 160.055L112.793 161.407L114.823 171.534L102.7 174.937L97.6962 186.368L87.1208 178.957L73.7351 184.578L71.9481 195.657L88.3932 201.375L88.0412 210.41L95.9795 221.164L110.703 211.545L136.191 217.767L142.765 232.454H153.475L162.773 243.88L154.91 257.816L154.19 269.961L142.77 268.176L133.927 285.66L142.987 297.54L135.059 304.892L117.932 301.917" stroke="white" stroke-width="2" stroke-miterlimit="10" stroke-linecap="round" stroke-linejoin="round"/>
<path d="M216.749 219.814L192.815 221.161L170.159 210.417V200.799C170.159 200.799 179.266 195.135 179.266 194.421C179.266 193.706 178.314 182.405 178.314 182.405L203.493 176.86L210.857 186.154L244.977 166.176" stroke="white" stroke-width="2" stroke-miterlimit="10" stroke-linecap="round" stroke-linejoin="round"/>
<path d="M255.276 208.99C255.276 215.033 254.8 220.973 253.879 226.756" stroke="white" stroke-width="2" stroke-miterlimit="10" stroke-linecap="round" stroke-linejoin="round"/>
<path d="M166.693 98.9355C209.13 108.197 242.632 141.338 252.39 183.556" stroke="white" stroke-width="2" stroke-miterlimit="10" stroke-linecap="round" stroke-linejoin="round"/>
<path d="M33.0633 181.825C45.2307 132.736 89.6226 96.3438 142.521 96.3438" stroke="white" stroke-width="2" stroke-miterlimit="10" stroke-linecap="round" stroke-linejoin="round"/>
<path d="M31.1901 226.962C30.2533 221.108 29.7659 215.109 29.7659 208.99" stroke="white" stroke-width="2" stroke-miterlimit="10" stroke-linecap="round" stroke-linejoin="round"/>
<path d="M181.92 314.578C169.65 319.149 156.378 321.648 142.521 321.648C129.238 321.648 116.497 319.355 104.665 315.141" stroke="white" stroke-width="2" stroke-miterlimit="10" stroke-linecap="round" stroke-linejoin="round"/>
<path d="M6.40566 269.976C1.46724 265.042 1.46724 257.035 6.40566 252.102L31.6771 226.849C36.6209 221.915 44.6243 221.915 49.5681 226.849C54.5066 231.788 54.5066 239.789 49.5681 244.723L24.2911 269.976C19.3526 274.91 11.3441 274.91 6.40566 269.976Z" stroke="white" stroke-width="2" stroke-miterlimit="10" stroke-linecap="round" stroke-linejoin="round"/>
<path d="M20.3545 291.786C15.4107 286.852 15.4107 278.846 20.3545 273.912L58.0155 236.286C62.9593 231.352 70.9627 231.352 75.9065 236.286C80.845 241.22 80.845 249.227 75.9065 254.16L38.2403 291.786C33.3019 296.72 25.293 296.72 20.3545 291.786Z" stroke="white" stroke-width="2" stroke-miterlimit="10" stroke-linecap="round" stroke-linejoin="round"/>
<path d="M38.2402 309.657C33.3018 304.723 33.3018 296.717 38.2402 291.783L75.9064 254.157C80.8449 249.224 88.8534 249.224 93.7918 254.157C98.7303 259.091 98.7303 267.092 93.7918 272.032L56.1309 309.657C51.1925 314.591 43.1786 314.591 38.2402 309.657Z" stroke="white" stroke-width="2" stroke-miterlimit="10" stroke-linecap="round" stroke-linejoin="round"/>
<path d="M60.0675 323.588C55.1291 318.654 55.1291 310.653 60.0675 305.714L85.3446 280.466C90.283 275.532 98.2916 275.532 103.23 280.466C108.174 285.4 108.174 293.401 103.23 298.335L77.9585 323.588C73.0201 328.522 65.0114 328.522 60.0675 323.588Z" stroke="white" stroke-width="2" stroke-miterlimit="10" stroke-linecap="round" stroke-linejoin="round"/>
<path d="M278.636 269.976C283.574 265.042 283.574 257.035 278.636 252.102L253.359 226.849C248.421 221.915 240.407 221.915 235.468 226.849C230.53 231.788 230.53 239.789 235.468 244.723L260.745 269.976C265.684 274.91 273.698 274.91 278.636 269.976Z" stroke="white" stroke-width="2" stroke-miterlimit="10" stroke-linecap="round" stroke-linejoin="round"/>
<path d="M264.687 291.786C269.626 286.852 269.626 278.846 264.687 273.912L227.026 236.286C222.088 231.352 214.079 231.352 209.136 236.286C204.197 241.22 204.197 249.227 209.136 254.16L246.802 291.786C251.74 296.72 259.743 296.72 264.687 291.786Z" stroke="white" stroke-width="2" stroke-miterlimit="10" stroke-linecap="round" stroke-linejoin="round"/>
<path d="M246.802 309.657C251.74 304.723 251.74 296.717 246.802 291.783L209.136 254.157C204.197 249.224 196.188 249.224 191.25 254.157C186.311 259.091 186.311 267.092 191.25 272.032L228.911 309.657C233.849 314.591 241.858 314.591 246.802 309.657Z" stroke="white" stroke-width="2" stroke-miterlimit="10" stroke-linecap="round" stroke-linejoin="round"/>
<path d="M224.969 323.588C229.912 318.654 229.912 310.653 224.969 305.714L199.697 280.466C194.759 275.532 186.745 275.532 181.806 280.466C176.868 285.4 176.868 293.401 181.806 298.335L207.083 323.588C212.022 328.522 220.025 328.522 224.969 323.588Z" stroke="white" stroke-width="2" stroke-miterlimit="10" stroke-linecap="round" stroke-linejoin="round"/>
<path d="M34.3957 209.614L11.7451 201.851C5.44214 199.697 2.09011 192.843 4.25067 186.546C6.41123 180.255 13.2722 176.906 19.5697 179.059L42.2203 186.822C48.5233 188.975 51.875 195.829 49.7144 202.127C47.5539 208.424 40.6987 211.778 34.3957 209.614Z" stroke="white" stroke-width="2" stroke-miterlimit="10" stroke-linecap="round" stroke-linejoin="round"/>
<path d="M253.803 209.613L275.923 202.04C282.226 199.881 285.578 193.027 283.423 186.735C281.262 180.438 274.401 177.089 268.104 179.242L245.978 186.822C239.681 188.975 236.324 195.829 238.484 202.126C240.639 208.423 247.5 211.777 253.803 209.613Z" stroke="white" stroke-width="2" stroke-miterlimit="10" stroke-linecap="round" stroke-linejoin="round"/>
<path d="M277.575 201.332C277.575 201.332 263.886 224.438 265.57 239.05" stroke="white" stroke-width="2" stroke-miterlimit="10" stroke-linecap="round" stroke-linejoin="round"/>
<path d="M9.8605 201.018C9.8605 201.018 23.3978 226.687 15.9523 242.565" stroke="white" stroke-width="2" stroke-miterlimit="10" stroke-linecap="round" stroke-linejoin="round"/>
<path d="M143.869 72.9863V110.114" stroke="white" stroke-width="2" stroke-miterlimit="10" stroke-linecap="round" stroke-linejoin="round"/>
<path d="M164.138 50.3861C164.138 65.1496 143.869 73.9241 143.869 73.9241C143.869 73.9241 123.601 64.4733 123.601 50.3861C123.601 25.9932 143.869 2.70898 143.869 2.70898C143.869 2.70898 164.138 25.9932 164.138 50.3861Z" stroke="white" stroke-width="2" stroke-miterlimit="10" stroke-linecap="round" stroke-linejoin="round"/>
<path d="M143.723 73.8289C143.723 73.8289 124.31 79.2929 112.116 66.4987C98.6003 52.3249 96.5751 20.6016 96.5751 20.6016C96.5751 20.6016 103.723 23.9826 112.116 26.6767" stroke="white" stroke-width="2" stroke-miterlimit="10" stroke-linecap="round" stroke-linejoin="round"/>
</g>
</svg>
