<svg width="53" height="61" viewBox="0 0 53 61" fill="none" xmlns="http://www.w3.org/2000/svg">
<g clip-path="url(#clip0_773:70)">
<path d="M17.228 20.3438L20.129 21.5317L17.585 23.8458L19.208 26.3408L22.328 24.7188L26.071 27.3387L25.572 29.5847L20.83 29.8347L21.205 31.7067L18.966 32.3358L18.042 34.4487L16.089 33.0787L13.617 34.1177L13.287 36.1657L16.324 37.2227L16.259 38.8928L17.725 40.8807L20.444 39.1027L25.151 40.2527L26.365 42.9677H28.343L30.06 45.0797L28.608 47.6558L28.475 49.9008L26.366 49.5707L24.733 52.8027L26.406 54.9987L24.942 56.3577L21.779 55.8077" stroke="#777777" stroke-miterlimit="10" stroke-linecap="round" stroke-linejoin="round"/>
<path d="M40.028 40.6318L35.608 40.8808L31.424 38.8948V37.1168C31.424 37.1168 33.106 36.0698 33.106 35.9378C33.106 35.8058 32.93 33.7168 32.93 33.7168L37.58 32.6918L38.94 34.4098L45.241 30.7168" stroke="#777777" stroke-miterlimit="10" stroke-linecap="round" stroke-linejoin="round"/>
<path d="M47.143 38.6309C47.143 39.7479 47.055 40.8459 46.885 41.9149" stroke="#777777" stroke-miterlimit="10" stroke-linecap="round" stroke-linejoin="round"/>
<path d="M30.784 18.2871C38.621 19.9991 44.808 26.1251 46.61 33.9291" stroke="#777777" stroke-miterlimit="10" stroke-linecap="round" stroke-linejoin="round"/>
<path d="M6.10596 33.6096C8.35296 24.5356 16.551 17.8086 26.32 17.8086" stroke="#777777" stroke-miterlimit="10" stroke-linecap="round" stroke-linejoin="round"/>
<path d="M5.76001 41.9529C5.58701 40.8709 5.49701 39.7619 5.49701 38.6309" stroke="#777777" stroke-miterlimit="10" stroke-linecap="round" stroke-linejoin="round"/>
<path d="M33.596 58.1484C31.33 58.9934 28.879 59.4554 26.32 59.4554C23.867 59.4554 21.514 59.0314 19.329 58.2524" stroke="#777777" stroke-miterlimit="10" stroke-linecap="round" stroke-linejoin="round"/>
<path d="M1.18296 49.906C0.270962 48.994 0.270962 47.514 1.18296 46.602L5.84995 41.934C6.76295 41.022 8.24097 41.022 9.15397 41.934C10.066 42.847 10.066 44.326 9.15397 45.238L4.48594 49.906C3.57394 50.818 2.09496 50.818 1.18296 49.906Z" stroke="#005BAA" stroke-miterlimit="10" stroke-linecap="round" stroke-linejoin="round"/>
<path d="M3.75897 53.9372C2.84597 53.0252 2.84597 51.5452 3.75897 50.6332L10.714 43.6781C11.627 42.7661 13.105 42.7661 14.018 43.6781C14.93 44.5901 14.93 46.0702 14.018 46.9822L7.06201 53.9372C6.15001 54.8492 4.67097 54.8492 3.75897 53.9372Z" stroke="#005BAA" stroke-miterlimit="10" stroke-linecap="round" stroke-linejoin="round"/>
<path d="M7.06199 57.2419C6.14999 56.3299 6.14999 54.8498 7.06199 53.9378L14.018 46.9828C14.93 46.0708 16.409 46.0708 17.321 46.9828C18.233 47.8948 18.233 49.3738 17.321 50.2868L10.3659 57.2419C9.45395 58.1539 7.97399 58.1539 7.06199 57.2419Z" stroke="#005BAA" stroke-miterlimit="10" stroke-linecap="round" stroke-linejoin="round"/>
<path d="M11.0929 59.8152C10.1809 58.9032 10.1809 57.4242 11.0929 56.5112L15.761 51.8442C16.673 50.9322 18.1519 50.9322 19.0639 51.8442C19.9769 52.7562 19.9769 54.2352 19.0639 55.1472L14.397 59.8152C13.485 60.7272 12.0059 60.7272 11.0929 59.8152Z" stroke="#005BAA" stroke-miterlimit="10" stroke-linecap="round" stroke-linejoin="round"/>
<path d="M51.4569 49.906C52.3689 48.994 52.3689 47.514 51.4569 46.602L46.789 41.934C45.877 41.022 44.397 41.022 43.485 41.934C42.573 42.847 42.573 44.326 43.485 45.238L48.153 49.906C49.065 50.818 50.5449 50.818 51.4569 49.906Z" stroke="#005BAA" stroke-miterlimit="10" stroke-linecap="round" stroke-linejoin="round"/>
<path d="M48.881 53.9372C49.793 53.0252 49.793 51.5452 48.881 50.6332L41.9259 43.6781C41.0139 42.7661 39.535 42.7661 38.622 43.6781C37.71 44.5901 37.71 46.0702 38.622 46.9822L45.578 53.9372C46.49 54.8492 47.968 54.8492 48.881 53.9372Z" stroke="#005BAA" stroke-miterlimit="10" stroke-linecap="round" stroke-linejoin="round"/>
<path d="M45.578 57.2419C46.49 56.3299 46.49 54.8498 45.578 53.9378L38.622 46.9828C37.71 46.0708 36.2309 46.0708 35.3189 46.9828C34.4069 47.8948 34.4069 49.3738 35.3189 50.2868L42.274 57.2419C43.186 58.1539 44.665 58.1539 45.578 57.2419Z" stroke="#005BAA" stroke-miterlimit="10" stroke-linecap="round" stroke-linejoin="round"/>
<path d="M41.5459 59.8152C42.4589 58.9032 42.4589 57.4242 41.5459 56.5112L36.8789 51.8442C35.9669 50.9322 34.487 50.9322 33.575 51.8442C32.663 52.7562 32.663 54.2352 33.575 55.1472L38.243 59.8152C39.155 60.7272 40.6329 60.7272 41.5459 59.8152Z" stroke="#005BAA" stroke-miterlimit="10" stroke-linecap="round" stroke-linejoin="round"/>
<path d="M6.35201 38.7471L2.16903 37.3122C1.00503 36.9142 0.385993 35.6472 0.784993 34.4832C1.18399 33.3202 2.45103 32.7011 3.61403 33.0991L7.79702 34.5341C8.96102 34.9321 9.57999 36.1992 9.18099 37.3632C8.78199 38.5272 7.51601 39.1471 6.35201 38.7471Z" stroke="#005BAA" stroke-miterlimit="10" stroke-linecap="round" stroke-linejoin="round"/>
<path d="M46.871 38.7463L50.956 37.3464C52.12 36.9474 52.739 35.6803 52.341 34.5173C51.942 33.3533 50.675 32.7343 49.512 33.1323L45.426 34.5333C44.263 34.9313 43.643 36.1984 44.042 37.3624C44.44 38.5264 45.707 39.1463 46.871 38.7463Z" stroke="#005BAA" stroke-miterlimit="10" stroke-linecap="round" stroke-linejoin="round"/>
<path d="M51.261 37.2168C51.261 37.2168 48.733 41.4878 49.044 44.1888" stroke="#005BAA" stroke-miterlimit="10" stroke-linecap="round" stroke-linejoin="round"/>
<path d="M1.82098 37.1582C1.82098 37.1582 4.32098 41.9032 2.94598 44.8382" stroke="#005BAA" stroke-miterlimit="10" stroke-linecap="round" stroke-linejoin="round"/>
<path d="M26.569 13.4902V20.3532" stroke="#005BAA" stroke-miterlimit="10" stroke-linecap="round" stroke-linejoin="round"/>
<path d="M30.312 9.31305C30.312 12.042 26.569 13.664 26.569 13.664C26.569 13.664 22.826 11.917 22.826 9.31305C22.826 4.80405 26.569 0.5 26.569 0.5C26.569 0.5 30.312 4.80405 30.312 9.31305Z" stroke="#005BAA" stroke-miterlimit="10" stroke-linecap="round" stroke-linejoin="round"/>
<path d="M26.542 13.6456C26.542 13.6456 22.957 14.6556 20.705 12.2906C18.209 9.67065 17.835 3.80664 17.835 3.80664C17.835 3.80664 19.155 4.43163 20.705 4.92963" stroke="#005BAA" stroke-miterlimit="10" stroke-linecap="round" stroke-linejoin="round"/>
</g>
<defs>
<clipPath id="clip0_773:70">
<rect width="52.962" height="61" fill="white"/>
</clipPath>
</defs>
</svg>
