<svg width="59" height="61" viewBox="0 0 59 61" fill="none" xmlns="http://www.w3.org/2000/svg">
<g clip-path="url(#clip0_773:39)">
<path d="M4.73297 15.875C9.10697 6.779 18.409 0.5 29.178 0.5C40.039 0.5 49.408 6.88699 53.734 16.11" stroke="#777777" stroke-miterlimit="10" stroke-linecap="round" stroke-linejoin="round"/>
<path d="M52.666 46.9336C47.98 55.0426 39.216 60.4996 29.177 60.4996C19.138 60.4996 10.374 55.0426 5.68799 46.9336" stroke="#777777" stroke-miterlimit="10" stroke-linecap="round" stroke-linejoin="round"/>
<path d="M40.375 48.0859C37.894 54.9349 33.755 60.4999 29.177 60.4999C24.593 60.4999 20.488 54.9509 18.008 48.0859" stroke="#777777" stroke-miterlimit="10" stroke-linecap="round" stroke-linejoin="round"/>
<path d="M16.42 17.836C18.398 7.693 23.364 0.5 29.177 0.5C34.654 0.5 39.379 6.88498 41.561 16.105" stroke="#777777" stroke-miterlimit="10" stroke-linecap="round" stroke-linejoin="round"/>
<path d="M40.375 48.0859C43.746 48.8649 46.831 50.1979 49.288 51.5679" stroke="#777777" stroke-miterlimit="10" stroke-linecap="round" stroke-linejoin="round"/>
<path d="M9.06702 51.5679C11.54 50.1889 14.61 48.8659 18.008 48.0859" stroke="#777777" stroke-miterlimit="10" stroke-linecap="round" stroke-linejoin="round"/>
<path d="M49.288 9.43164C44.327 12.1986 37.154 13.9357 29.177 13.9357C21.199 13.9357 14.027 12.1976 9.06598 9.43164" stroke="#777777" stroke-miterlimit="10" stroke-linecap="round" stroke-linejoin="round"/>
<path d="M29.177 52.7266V60.4996" stroke="#777777" stroke-miterlimit="10" stroke-linecap="round" stroke-linejoin="round"/>
<path d="M29.177 0.5V15.573" stroke="#777777" stroke-miterlimit="10" stroke-linecap="round" stroke-linejoin="round"/>
<path d="M47.942 25.1013H42.865L39.743 20.5323C39.332 19.9303 38.65 19.5703 37.922 19.5703H31.368C30.782 19.5703 30.222 19.8023 29.807 20.2163L25.575 24.4483C24.569 25.4543 24.569 27.0853 25.575 28.0913C26.581 29.0983 28.212 29.0983 29.218 28.0913L32.777 24.5323H36.896" stroke="#005BAA" stroke-miterlimit="10" stroke-linecap="round" stroke-linejoin="round"/>
<path d="M19.637 37.2278L18.335 38.5298C17.485 39.3808 16.106 39.3808 15.255 38.5298C14.404 37.6788 14.404 36.3008 15.255 35.4498L16.556 34.1488C17.407 33.2968 18.785 33.2968 19.636 34.1488C20.488 34.9988 20.488 36.3778 19.637 37.2278Z" stroke="#005BAA" stroke-miterlimit="10" stroke-linecap="round" stroke-linejoin="round"/>
<path d="M22.704 40.2964L21.403 41.5984C20.552 42.4494 19.174 42.4494 18.323 41.5984C17.472 40.7474 17.472 39.3694 18.323 38.5184L19.624 37.2164C20.475 36.3654 21.853 36.3654 22.704 37.2164C23.555 38.0664 23.555 39.4454 22.704 40.2964Z" stroke="#005BAA" stroke-miterlimit="10" stroke-linecap="round" stroke-linejoin="round"/>
<path d="M25.772 43.3627L24.47 44.6647C23.619 45.5147 22.241 45.5147 21.39 44.6647C20.539 43.8137 20.539 42.4348 21.39 41.5848L22.692 40.2828C23.543 39.4318 24.921 39.4318 25.772 40.2828C26.622 41.1338 26.622 42.5127 25.772 43.3627Z" stroke="#005BAA" stroke-miterlimit="10" stroke-linecap="round" stroke-linejoin="round"/>
<path d="M28.839 46.4312L27.537 47.7332C26.686 48.5842 25.308 48.5842 24.457 47.7332C23.607 46.8822 23.607 45.5041 24.457 44.6531L25.759 43.3511C26.61 42.5001 27.988 42.5001 28.839 43.3511C29.689 44.2011 29.689 45.5802 28.839 46.4312Z" stroke="#005BAA" stroke-miterlimit="10" stroke-linecap="round" stroke-linejoin="round"/>
<path d="M28.69 39.6562L32.781 43.7483C33.632 44.5993 33.632 45.9772 32.781 46.8282C31.93 47.6792 30.552 47.6792 29.701 46.8282L29.071 46.1973" stroke="#005BAA" stroke-miterlimit="10" stroke-linecap="round" stroke-linejoin="round"/>
<path d="M31.887 36.7207L36.505 41.3387C37.356 42.1897 37.356 43.5677 36.505 44.4187C35.654 45.2697 34.276 45.2697 33.425 44.4187L32.123 43.1177" stroke="#005BAA" stroke-miterlimit="10" stroke-linecap="round" stroke-linejoin="round"/>
<path d="M39.033 37.7324L40.334 39.0344C41.186 39.8854 41.186 41.2634 40.334 42.1144C39.484 42.9654 38.105 42.9654 37.255 42.1144L35.953 40.8124" stroke="#005BAA" stroke-miterlimit="10" stroke-linecap="round" stroke-linejoin="round"/>
<path d="M34.512 27.0781L41.982 34.5481C42.833 35.3991 42.833 36.7771 41.982 37.6281C41.131 38.4791 39.753 38.4791 38.902 37.6281L34.726 33.4521" stroke="#005BAA" stroke-miterlimit="10" stroke-linecap="round" stroke-linejoin="round"/>
<path d="M28.18 21.8438H22.356C20.724 21.8438 19.158 22.4908 18.004 23.6458L16.734 24.9158H10.402" stroke="#005BAA" stroke-miterlimit="10" stroke-linecap="round" stroke-linejoin="round"/>
<path d="M10.402 39.6582H13.07" stroke="#005BAA" stroke-miterlimit="10" stroke-linecap="round" stroke-linejoin="round"/>
<path d="M43.402 39.6582H47.942" stroke="#005BAA" stroke-miterlimit="10" stroke-linecap="round" stroke-linejoin="round"/>
<path d="M10.402 22.8047H5.58502V41.5517H10.402V22.8047Z" stroke="#005BAA" stroke-miterlimit="10" stroke-linecap="round" stroke-linejoin="round"/>
<path d="M52.759 22.8047H47.942V41.5517H52.759V22.8047Z" stroke="#005BAA" stroke-miterlimit="10" stroke-linecap="round" stroke-linejoin="round"/>
<path d="M5.58502 22.8047H0.5" stroke="#005BAA" stroke-miterlimit="10" stroke-linecap="round" stroke-linejoin="round"/>
<path d="M5.58502 41.5527H0.5" stroke="#005BAA" stroke-miterlimit="10" stroke-linecap="round" stroke-linejoin="round"/>
<path d="M57.844 22.8047H52.759" stroke="#005BAA" stroke-miterlimit="10" stroke-linecap="round" stroke-linejoin="round"/>
<path d="M57.844 41.5527H52.759" stroke="#005BAA" stroke-miterlimit="10" stroke-linecap="round" stroke-linejoin="round"/>
</g>
<defs>
<clipPath id="clip0_773:39">
<rect width="58.344" height="61" fill="white"/>
</clipPath>
</defs>
</svg>
