<svg width="66" height="61" viewBox="0 0 66 61" fill="none" xmlns="http://www.w3.org/2000/svg">
<g clip-path="url(#clip0_773:5)">
<path d="M53.646 36.3867C60.352 42.2597 64.586 50.8847 64.586 60.4997" stroke="#777777" stroke-miterlimit="10" stroke-linecap="round" stroke-linejoin="round"/>
<path d="M0.5 60.5002C0.5 50.8072 4.80398 42.1182 11.605 36.2422" stroke="#777777" stroke-miterlimit="10" stroke-linecap="round" stroke-linejoin="round"/>
<path d="M47.522 48.4434C48.285 52.1654 48.705 56.2354 48.705 60.5004" stroke="#777777" stroke-miterlimit="10" stroke-linecap="round" stroke-linejoin="round"/>
<path d="M16.381 60.5004C16.381 56.2354 16.801 52.1654 17.565 48.4434" stroke="#777777" stroke-miterlimit="10" stroke-linecap="round" stroke-linejoin="round"/>
<path d="M11.964 40.5657C10.83 40.0867 9.763 39.5677 8.771 39.0137" stroke="#777777" stroke-miterlimit="10" stroke-linecap="round" stroke-linejoin="round"/>
<path d="M56.315 39.0137C55.333 39.5627 54.276 40.0767 53.153 40.5517" stroke="#777777" stroke-miterlimit="10" stroke-linecap="round" stroke-linejoin="round"/>
<path d="M32.543 48.4434V60.5004" stroke="#777777" stroke-miterlimit="10" stroke-linecap="round" stroke-linejoin="round"/>
<path d="M1.03198 55.6094H64.054" stroke="#777777" stroke-miterlimit="10" stroke-linecap="round" stroke-linejoin="round"/>
<path d="M50.492 45.4473V22.0203H42.599V4.90234H29.431V20.8073H21.586V27.8373H14.625V45.4473" stroke="#005BAA" stroke-miterlimit="10" stroke-linecap="round" stroke-linejoin="round"/>
<path d="M37.714 9.07227H42.599" stroke="#005BAA" stroke-miterlimit="10" stroke-linecap="round" stroke-linejoin="round"/>
<path d="M37.714 13.3887H42.599" stroke="#005BAA" stroke-miterlimit="10" stroke-linecap="round" stroke-linejoin="round"/>
<path d="M37.714 17.7051H42.599" stroke="#005BAA" stroke-miterlimit="10" stroke-linecap="round" stroke-linejoin="round"/>
<path d="M37.714 22.0215H42.599" stroke="#005BAA" stroke-miterlimit="10" stroke-linecap="round" stroke-linejoin="round"/>
<path d="M37.714 26.3359H42.599" stroke="#005BAA" stroke-miterlimit="10" stroke-linecap="round" stroke-linejoin="round"/>
<path d="M37.714 30.6504H42.599" stroke="#005BAA" stroke-miterlimit="10" stroke-linecap="round" stroke-linejoin="round"/>
<path d="M14.625 32.207H18.18" stroke="#005BAA" stroke-miterlimit="10" stroke-linecap="round" stroke-linejoin="round"/>
<path d="M14.625 36.6973H18.18" stroke="#005BAA" stroke-miterlimit="10" stroke-linecap="round" stroke-linejoin="round"/>
<path d="M14.625 41.1895H18.18" stroke="#005BAA" stroke-miterlimit="10" stroke-linecap="round" stroke-linejoin="round"/>
<path d="M46.927 32.207H50.482" stroke="#005BAA" stroke-miterlimit="10" stroke-linecap="round" stroke-linejoin="round"/>
<path d="M46.927 28.1738H50.482" stroke="#005BAA" stroke-miterlimit="10" stroke-linecap="round" stroke-linejoin="round"/>
<path d="M46.927 36.6973H50.482" stroke="#005BAA" stroke-miterlimit="10" stroke-linecap="round" stroke-linejoin="round"/>
<path d="M46.927 41.1895H50.482" stroke="#005BAA" stroke-miterlimit="10" stroke-linecap="round" stroke-linejoin="round"/>
<path d="M37.714 34.9688H42.599" stroke="#005BAA" stroke-miterlimit="10" stroke-linecap="round" stroke-linejoin="round"/>
<path d="M42.599 39.0145V22.0215" stroke="#005BAA" stroke-miterlimit="10" stroke-linecap="round" stroke-linejoin="round"/>
<path d="M29.431 39.0146V20.8086" stroke="#005BAA" stroke-miterlimit="10" stroke-linecap="round" stroke-linejoin="round"/>
<path d="M21.586 35.6859V27.8379" stroke="#005BAA" stroke-miterlimit="10" stroke-linecap="round" stroke-linejoin="round"/>
<path d="M35.033 4.90302V0.5" stroke="#005BAA" stroke-miterlimit="10" stroke-linecap="round" stroke-linejoin="round"/>
<path d="M38.761 4.90216V2.70117" stroke="#005BAA" stroke-miterlimit="10" stroke-linecap="round" stroke-linejoin="round"/>
<path d="M11.605 45.4473H53.646" stroke="#005BAA" stroke-miterlimit="10" stroke-linecap="round" stroke-linejoin="round"/>
</g>
<defs>
<clipPath id="clip0_773:5">
<rect width="65.086" height="61" fill="white"/>
</clipPath>
</defs>
</svg>
