<svg width="315" height="330" viewBox="0 0 315 330" fill="none" xmlns="http://www.w3.org/2000/svg">
<g opacity="0.1">
<path d="M25.4954 85.8833C49.0572 36.6754 99.1649 2.70703 157.175 2.70703C215.681 2.70703 266.15 37.2596 289.453 87.1545" stroke="white" stroke-width="2" stroke-miterlimit="10" stroke-linecap="round" stroke-linejoin="round"/>
<path d="M283.7 253.904C258.457 297.773 211.248 327.294 157.17 327.294C103.092 327.294 55.8823 297.773 30.6399 253.904" stroke="white" stroke-width="2" stroke-miterlimit="10" stroke-linecap="round" stroke-linejoin="round"/>
<path d="M217.491 260.137C204.126 297.189 181.83 327.294 157.17 327.294C132.477 327.294 110.364 297.275 97.0049 260.137" stroke="white" stroke-width="2" stroke-miterlimit="10" stroke-linecap="round" stroke-linejoin="round"/>
<path d="M88.4507 96.4919C99.1057 41.62 125.857 2.70703 157.17 2.70703C186.673 2.70703 212.125 37.2487 223.879 87.1274" stroke="white" stroke-width="2" stroke-miterlimit="10" stroke-linecap="round" stroke-linejoin="round"/>
<path d="M217.491 260.137C235.65 264.351 252.268 271.562 265.503 278.974" stroke="white" stroke-width="2" stroke-miterlimit="10" stroke-linecap="round" stroke-linejoin="round"/>
<path d="M48.8419 278.974C62.1634 271.514 78.7007 264.356 97.0049 260.137" stroke="white" stroke-width="2" stroke-miterlimit="10" stroke-linecap="round" stroke-linejoin="round"/>
<path d="M265.503 51.0234C238.779 65.9925 200.14 75.3895 157.17 75.3895C114.194 75.3895 75.5601 65.987 48.8363 51.0234" stroke="white" stroke-width="2" stroke-miterlimit="10" stroke-linecap="round" stroke-linejoin="round"/>
<path d="M157.17 285.248V327.299" stroke="white" stroke-width="2" stroke-miterlimit="10" stroke-linecap="round" stroke-linejoin="round"/>
<path d="M157.17 2.70703V84.2495" stroke="white" stroke-width="2" stroke-miterlimit="10" stroke-linecap="round" stroke-linejoin="round"/>
<path d="M258.253 135.795H230.904L214.086 111.077C211.872 107.82 208.199 105.873 204.277 105.873H168.972C165.815 105.873 162.799 107.128 160.563 109.368L137.767 132.262C132.348 137.704 132.348 146.528 137.767 151.97C143.186 157.418 151.972 157.418 157.391 151.97L176.562 132.717H198.75" stroke="white" stroke-width="2" stroke-miterlimit="10" stroke-linecap="round" stroke-linejoin="round"/>
<path d="M105.78 201.397L98.7666 208.441C94.1878 213.045 86.7594 213.045 82.1752 208.441C77.5911 203.837 77.5911 196.382 82.1752 191.778L89.1832 184.74C93.7674 180.131 101.19 180.131 105.775 184.74C110.364 189.338 110.364 196.799 105.78 201.397Z" stroke="white" stroke-width="2" stroke-miterlimit="10" stroke-linecap="round" stroke-linejoin="round"/>
<path d="M122.301 217.996L115.293 225.04C110.709 229.643 103.286 229.643 98.7018 225.04C94.1177 220.436 94.1177 212.981 98.7018 208.377L105.71 201.334C110.294 196.73 117.717 196.73 122.301 201.334C126.885 205.932 126.885 213.392 122.301 217.996Z" stroke="white" stroke-width="2" stroke-miterlimit="10" stroke-linecap="round" stroke-linejoin="round"/>
<path d="M138.828 234.591L131.814 241.635C127.23 246.233 119.807 246.233 115.223 241.635C110.639 237.031 110.639 229.571 115.223 224.973L122.237 217.929C126.821 213.326 134.244 213.326 138.828 217.929C143.406 222.533 143.406 229.993 138.828 234.591Z" stroke="white" stroke-width="2" stroke-miterlimit="10" stroke-linecap="round" stroke-linejoin="round"/>
<path d="M155.349 251.182L148.335 258.225C143.751 262.829 136.328 262.829 131.744 258.225C127.165 253.621 127.165 246.167 131.744 241.563L138.758 234.519C143.342 229.915 150.765 229.915 155.349 234.519C159.928 239.118 159.928 246.578 155.349 251.182Z" stroke="white" stroke-width="2" stroke-miterlimit="10" stroke-linecap="round" stroke-linejoin="round"/>
<path d="M154.546 214.537L176.584 236.674C181.168 241.278 181.168 248.733 176.584 253.336C172 257.94 164.577 257.94 159.992 253.336L156.599 249.923" stroke="white" stroke-width="2" stroke-miterlimit="10" stroke-linecap="round" stroke-linejoin="round"/>
<path d="M171.768 198.654L196.644 223.637C201.228 228.241 201.228 235.695 196.644 240.299C192.06 244.903 184.637 244.903 180.053 240.299L173.039 233.261" stroke="white" stroke-width="2" stroke-miterlimit="10" stroke-linecap="round" stroke-linejoin="round"/>
<path d="M210.262 204.127L217.27 211.17C221.859 215.774 221.859 223.229 217.27 227.833C212.691 232.436 205.263 232.436 200.684 227.833L193.671 220.789" stroke="white" stroke-width="2" stroke-miterlimit="10" stroke-linecap="round" stroke-linejoin="round"/>
<path d="M185.908 146.486L226.147 186.898C230.731 191.501 230.731 198.956 226.147 203.56C221.563 208.164 214.14 208.164 209.556 203.56L187.061 180.969" stroke="white" stroke-width="2" stroke-miterlimit="10" stroke-linecap="round" stroke-linejoin="round"/>
<path d="M151.799 118.174H120.427C111.636 118.174 103.2 121.674 96.9832 127.922L90.1423 134.793H56.0331" stroke="white" stroke-width="2" stroke-miterlimit="10" stroke-linecap="round" stroke-linejoin="round"/>
<path d="M56.0331 214.539H70.4051" stroke="white" stroke-width="2" stroke-miterlimit="10" stroke-linecap="round" stroke-linejoin="round"/>
<path d="M233.797 214.539H258.253" stroke="white" stroke-width="2" stroke-miterlimit="10" stroke-linecap="round" stroke-linejoin="round"/>
<path d="M56.0331 123.375H30.0853V224.793H56.0331V123.375Z" stroke="white" stroke-width="2" stroke-miterlimit="10" stroke-linecap="round" stroke-linejoin="round"/>
<path d="M284.2 123.375H258.253V224.793H284.2V123.375Z" stroke="white" stroke-width="2" stroke-miterlimit="10" stroke-linecap="round" stroke-linejoin="round"/>
<path d="M30.0852 123.375H2.6934" stroke="white" stroke-width="2" stroke-miterlimit="10" stroke-linecap="round" stroke-linejoin="round"/>
<path d="M30.0852 224.789H2.6934" stroke="white" stroke-width="2" stroke-miterlimit="10" stroke-linecap="round" stroke-linejoin="round"/>
<path d="M311.592 123.375H284.2" stroke="white" stroke-width="2" stroke-miterlimit="10" stroke-linecap="round" stroke-linejoin="round"/>
<path d="M311.592 224.789H284.2" stroke="white" stroke-width="2" stroke-miterlimit="10" stroke-linecap="round" stroke-linejoin="round"/>
</g>
</svg>
