<?xml version="1.0" encoding="utf-8"?>
<!-- Generator: Adobe Illustrator 16.0.0, SVG Export Plug-In . SVG Version: 6.00 Build 0)  -->
<!DOCTYPE svg PUBLIC "-//W3C//DTD SVG 1.1//EN" "http://www.w3.org/Graphics/SVG/1.1/DTD/svg11.dtd">
<svg version="1.1" id="Layer_1" xmlns="http://www.w3.org/2000/svg" xmlns:xlink="http://www.w3.org/1999/xlink" x="0px" y="0px"
	 width="202px" height="36.816px" viewBox="0 0 202 36.816" enable-background="new 0 0 202 36.816" xml:space="preserve">
<g>
	<path fill="#5A5B5D" d="M83.986,19.068c-3.774,0-6.834,2.742-6.834,6.123s3.06,6.123,6.834,6.123c3.773,0,6.833-2.742,6.833-6.123
		S87.759,19.068,83.986,19.068 M83.986,28.421c-2.06,0-3.73-1.447-3.73-3.23s1.67-3.229,3.73-3.229s3.73,1.445,3.73,3.229
		S86.046,28.421,83.986,28.421"/>
	<polygon fill="#5A5B5D" points="87.711,20.001 90.818,20.001 90.818,7.454 87.711,7.454 87.711,9.543 84.691,9.543 84.691,12.332 
		87.711,12.332 87.711,13.952 84.691,13.952 84.691,16.738 87.711,16.738 	"/>
	<path fill="#5A5B5D" d="M83.154,9.205V7.957H71.338v2.99h8.24c0,0-1.104,5.436-9.417,7.326l1.622,2.572
		C71.783,20.845,83.081,18.527,83.154,9.205"/>
	<path fill="#5A5B5D" d="M52.476,7.636c-3.692,0-6.685,3.494-6.685,7.806c0,4.31,2.993,7.804,6.685,7.804
		c3.693,0,6.684-3.494,6.684-7.804C59.16,11.13,56.168,7.636,52.476,7.636 M52.474,20.179c-1.978,0-3.583-2.123-3.583-4.738
		c0-2.616,1.605-4.737,3.583-4.737c1.981,0,3.585,2.121,3.585,4.737C56.059,18.056,54.455,20.179,52.474,20.179"/>
	<polygon fill="#5A5B5D" points="64.901,12.012 63.336,12.012 63.336,7.453 60.409,7.453 60.409,30.537 63.336,30.537 
		63.336,14.785 64.901,14.785 64.901,30.537 67.819,30.537 67.819,7.453 64.901,7.453 	"/>
	<rect x="132.428" y="7.397" fill="#5A5B5D" width="2.918" height="23.083"/>
	<path fill="#5A5B5D" d="M116.734,7.778v0.028v14.262h12.102V7.806L116.734,7.778z M119.652,10.945h6.266V18.9h-6.266V10.945z"/>
	<path fill="#5A5B5D" d="M103.884,7.958h-9.572v2.989h6.178c0,0,0.019,0.938-0.487,2.251h-4.77v2.405h3.359
		c-1.055,1.312-2.685,2.674-5.245,3.77l1.622,2.57c0,0,8.915-3.215,8.915-12.737V7.958z"/>
	<rect x="110.504" y="7.397" fill="#5A5B5D" width="2.918" height="23.083"/>
	<polygon fill="#5A5B5D" points="106.26,13.004 103.884,13.004 103.884,15.796 106.26,15.796 106.26,30.48 109.178,30.48 
		109.178,7.398 106.26,7.398 	"/>
	<polygon fill="#5A5B5D" points="141.549,22.863 155.084,22.863 155.084,24.041 141.549,24.041 141.549,25.097 141.549,26.671 
		141.549,27.849 141.549,29.738 141.549,30.48 158.127,30.48 158.127,27.849 144.566,27.849 144.566,26.671 158.127,26.671 
		158.127,25.484 158.127,24.041 158.127,22.863 158.127,20.843 158.127,20.232 141.549,20.232 	"/>
	<polygon fill="#5A5B5D" points="158.102,11.968 158.102,7.397 155.084,7.397 155.084,19.248 158.102,19.248 158.102,14.76 
		160.846,14.76 160.846,11.968 	"/>
	<path fill="#5A5B5D" d="M152.343,9.206V7.958h-13.287v2.989h9.711c0,0-0.153,0.587-0.747,1.406h-7.938v2.406h5.228
		c-1.682,1.031-4.151,2.001-7.793,2.503l1.622,2.571C139.139,19.833,152.269,18.527,152.343,9.206"/>
	<path fill="#5A5B5D" d="M172.919,15.875l1.636,2.538c0,0,5.186-0.584,7.83-4.604c2.645,4.021,7.805,4.575,7.805,4.575l1.646-2.509
		c-6.953-1.603-7.712-5.474-7.712-5.474h6.728V7.428h-7.067h-2.814h-7.065v2.974h6.769
		C180.673,10.402,179.873,14.273,172.919,15.875"/>
	<polygon fill="#5A5B5D" points="171.419,22.328 180.827,22.328 180.827,29.916 183.895,29.916 183.895,22.328 193.373,22.328 
		193.373,19.361 171.419,19.361 	"/>
	<path fill="#5A5B5D" d="M197.072,7.657h-2.289c1.229,2.126,2.107,4.122,2.631,5.988c0.527,1.866,0.789,3.669,0.789,5.411
		c0,1.74-0.262,3.543-0.789,5.41c-0.523,1.865-1.401,3.871-2.631,6.012h2.289C206.123,18.23,197.072,7.657,197.072,7.657"/>
	<path fill="#5A5B5D" d="M170.578,7.657h-2.287c0,0-9.051,10.573,0,22.821h2.287c-1.229-2.141-2.105-4.146-2.631-6.012
		c-0.524-1.867-0.787-3.67-0.787-5.41c0-1.742,0.263-3.545,0.787-5.411C168.473,11.779,169.35,9.783,170.578,7.657"/>
</g>
<g>
	<g>
		<defs>
			<path id="SVGID_1_" d="M18.928,26.39C9.915,23.189,6.2,23.755,5.046,26.359c-0.915,2.068,0.874,3.846,1.968,4.99
				c3.137,3.287,8.55,5.467,13.89,5.32c5.748-0.158,15.737-4.574,17.105-16.223C35.975,28.916,28.552,29.816,18.928,26.39"/>
		</defs>
		<clipPath id="SVGID_2_">
			<use xlink:href="#SVGID_1_"  overflow="visible"/>
		</clipPath>
		
			<radialGradient id="SVGID_3_" cx="-308.0078" cy="315.0698" r="1" gradientTransform="matrix(18.385 0 0 -18.385 5675.4951 5800.7979)" gradientUnits="userSpaceOnUse">
			<stop  offset="0" style="stop-color:#00ADEE"/>
			<stop  offset="1" style="stop-color:#004281"/>
		</radialGradient>
		<rect x="4.131" y="20.447" clip-path="url(#SVGID_2_)" fill="url(#SVGID_3_)" width="33.878" height="16.369"/>
	</g>
	<g>
		<defs>
			<path id="SVGID_4_" d="M8.96,12.539c0,1.501,1.218,2.717,2.716,2.717c0.141,0,0.276-0.021,0.412-0.043
				c1.239-0.257,2.172-1.354,2.172-2.673c0-1.46-1.153-2.644-2.596-2.717C10.172,9.831,8.96,11.044,8.96,12.539"/>
		</defs>
		<clipPath id="SVGID_5_">
			<use xlink:href="#SVGID_4_"  overflow="visible"/>
		</clipPath>
		
			<radialGradient id="SVGID_6_" cx="-308.0146" cy="315.061" r="1" gradientTransform="matrix(18.3805 0 0 -18.3805 5674.248 5799.1963)" gradientUnits="userSpaceOnUse">
			<stop  offset="0" style="stop-color:#00ADEE"/>
			<stop  offset="1" style="stop-color:#004281"/>
		</radialGradient>
		<rect x="8.96" y="9.823" clip-path="url(#SVGID_5_)" fill="url(#SVGID_6_)" width="5.3" height="5.433"/>
	</g>
	<g>
		<defs>
			<path id="SVGID_7_" d="M5.638,12.54c0-3.251,2.639-5.889,5.891-5.889c0.431,0,0.85,0.05,1.255,0.139
				c1.102,0.211,2.091,0.732,2.88,1.467V6.863h3.175v0.028h0.108v11.287h-0.108v0.032h-3.175v-1.39
				c-0.782,0.729-1.758,1.249-2.847,1.465c-0.415,0.093-0.844,0.146-1.288,0.146C8.277,18.431,5.638,15.793,5.638,12.54
				 M28.354,6.651c0.945,0,1.836,0.227,2.628,0.623c1.294,0.636,2.321,1.731,2.863,3.074l-2.916,1.178
				c-0.001-0.006-0.006-0.013-0.008-0.019l-0.036,0.014c-0.348-0.859-1.12-1.502-2.057-1.666c-0.136-0.021-0.276-0.033-0.416-0.033
				c-1.501,0-2.715,1.22-2.715,2.717c0,1.501,1.214,2.717,2.715,2.717c0.275,0,0.539-0.044,0.789-0.12
				c0.773-0.252,1.394-0.839,1.69-1.588l0.032,0.014c0.004-0.008,0.008-0.014,0.011-0.021l2.919,1.175
				c-0.435,1.087-1.187,2.011-2.14,2.662c-0.953,0.664-2.11,1.054-3.359,1.054c-1.629,0-3.099-0.67-4.166-1.74v1.487h-0.08v0.032
				h-3.172V6.863h3.172v0.028h0.08v1.5C25.255,7.32,26.726,6.651,28.354,6.651 M18.741,0.033C8.623,0.632,0.904,9.318,1.505,19.437
				c0.186,3.146,0.856,4.949,1.9,7.133c0.481-3.945,3.914-8.176,17.313-3.918c5.078,1.613,6.562,2.004,9.917,1.82
				c2.522-0.137,8.577-2.664,6.955-10.709C35.535,5.776,28.278,0,19.836,0C19.472,0,19.108,0.011,18.741,0.033"/>
		</defs>
		<clipPath id="SVGID_8_">
			<use xlink:href="#SVGID_7_"  overflow="visible"/>
		</clipPath>
		
			<radialGradient id="SVGID_9_" cx="-308" cy="315.0366" r="0.9995" gradientTransform="matrix(18.2924 0 0 -18.2924 5646.7832 5770.9746)" gradientUnits="userSpaceOnUse">
			<stop  offset="0" style="stop-color:#00ADEE"/>
			<stop  offset="1" style="stop-color:#004281"/>
		</radialGradient>
		<rect x="0.904" y="0" clip-path="url(#SVGID_8_)" fill="url(#SVGID_9_)" width="38.308" height="26.57"/>
	</g>
</g>
</svg>
