<svg width="67" height="67" viewBox="0 0 67 67" fill="none" xmlns="http://www.w3.org/2000/svg">
<path d="M33.5 67C52.0015 67 67 52.0015 67 33.5C67 14.9985 52.0015 0 33.5 0C14.9985 0 0 14.9985 0 33.5C0 52.0015 14.9985 67 33.5 67Z" fill="white"/>
<path fill-rule="evenodd" clip-rule="evenodd" d="M49.16 39.11C49.16 44.6603 44.6576 49.1627 39.11 49.1627H27.05C21.5024 49.1627 17 44.6603 17 39.11V27.0527C17 21.5024 21.5024 17 27.05 17H39.11C44.6576 17 49.16 21.5024 49.16 27.0527V39.11ZM39.11 20.015C42.988 20.015 46.145 23.172 46.145 27.0527V39.11C46.145 42.9906 42.988 46.145 39.11 46.145H27.05C23.1721 46.145 20.015 42.9906 20.015 39.11V27.0527C20.015 23.172 23.1721 20.015 27.05 20.015H39.11ZM25.04 33.0827C25.04 37.5208 28.642 41.1227 33.08 41.1227C37.5181 41.1227 41.12 37.5208 41.12 33.0827C41.12 28.6419 37.5181 25.04 33.08 25.04C28.642 25.04 25.04 28.6419 25.04 33.0827ZM40.6537 24.4397C40.6537 25.0293 41.1307 25.5117 41.723 25.5117C42.3126 25.5117 42.795 25.0293 42.795 24.4397C42.795 23.8501 42.3126 23.3703 41.723 23.3703C41.1334 23.3703 40.6537 23.8501 40.6537 24.4397ZM38.105 33.0827C38.105 35.8579 35.8552 38.1077 33.08 38.1077C30.3048 38.1077 28.055 35.8579 28.055 33.0827C28.055 30.3074 30.3048 28.0577 33.08 28.0577C35.8552 28.0577 38.105 30.3074 38.105 33.0827Z" fill="#222222"/>
</svg>
