<svg width="67" height="67" viewBox="0 0 67 67" fill="none" xmlns="http://www.w3.org/2000/svg">
<circle cx="33.5" cy="33.5" r="33.5" fill="white"/>
<path fill-rule="evenodd" clip-rule="evenodd" d="M40.2094 24.7011H40.5631V20.1987C40.5269 20.1945 40.4905 20.1903 40.4541 20.186C40.0241 20.1361 39.5794 20.0845 39.1347 20.0647C39.0683 20.0619 39.002 20.059 38.9356 20.0562C38.1171 20.0211 37.296 19.9859 36.4681 20.0057C35.1093 20.0379 33.831 20.3702 32.7134 21.1662C31.427 22.0908 30.7222 23.3906 30.4595 24.9182C30.3496 25.5533 30.3202 26.2099 30.2987 26.8505C30.2862 27.5201 30.2904 28.192 30.2945 28.8656C30.2966 29.203 30.2987 29.5408 30.2987 29.8789V30.2648H26V35.2844H30.2746V47.9072H35.4979V35.2978H39.7645C39.9842 33.6255 40.1986 31.9746 40.4184 30.2541H39.4643C38.2476 30.2648 35.4684 30.2541 35.4684 30.2541C35.4684 30.2541 35.4792 27.767 35.5113 26.6816C35.5462 25.2023 36.4359 24.752 37.6124 24.7091C38.2216 24.6884 38.8308 24.6929 39.4399 24.6973C39.6964 24.6992 39.9529 24.7011 40.2094 24.7011Z" fill="#222222"/>
</svg>
