<svg width="30" height="30" viewBox="0 0 30 30" fill="none" xmlns="http://www.w3.org/2000/svg">
<path d="M22.3183 20.9041L21.6112 20.197L20.197 21.6112L20.9041 22.3183L22.3183 20.9041ZM28.2929 29.7071C28.6834 30.0976 29.3166 30.0976 29.7071 29.7071C30.0976 29.3166 30.0976 28.6834 29.7071 28.2929L28.2929 29.7071ZM23.909 12.9545C23.909 19.0045 19.0045 23.909 12.9545 23.909V25.909C20.1091 25.909 25.909 20.1091 25.909 12.9545H23.909ZM12.9545 23.909C6.9045 23.909 2 19.0045 2 12.9545H0C0 20.1091 5.79993 25.909 12.9545 25.909V23.909ZM2 12.9545C2 6.9045 6.9045 2 12.9545 2V0C5.79993 0 0 5.79993 0 12.9545H2ZM12.9545 2C19.0045 2 23.909 6.9045 23.909 12.9545H25.909C25.909 5.79993 20.1091 0 12.9545 0V2ZM20.9041 22.3183L28.2929 29.7071L29.7071 28.2929L22.3183 20.9041L20.9041 22.3183Z" fill="#FFFFFF"/>
</svg>
